<?xml
version="1.0" encoding="UTF-8" standalone="no"?>
<!-- Created with Inkscape (http://www.inkscape.org/) -->

<svg width="210mm" height="297mm" viewBox="94.1 107.52 38 38" version="1.1" id="svg871" inkscape:version="1.1.2 (08b2f3d93c, 2022-04-05)" sodipodi:docname="trace_03_fingerprint_only_whiteOnGreen.svg" xmlns:inkscape="http://www.inkscape.org/namespaces/inkscape" xmlns:sodipodi="http://sodipodi.sourceforge.net/DTD/sodipodi-0.dtd" xmlns="http://www.w3.org/2000/svg" xmlns:svg="http://www.w3.org/2000/svg">
    <sodipodi:namedview id="namedview873" pagecolor="#ffffff" bordercolor="#666666" borderopacity="1.0" inkscape:pageshadow="2" inkscape:pageopacity="0.0" inkscape:pagecheckerboard="0" inkscape:document-units="mm" showgrid="false" inkscape:zoom="0.75187991" inkscape:cx="397.00489" inkscape:cy="561.92484" inkscape:window-width="1848" inkscape:window-height="1016" inkscape:window-x="72" inkscape:window-y="27" inkscape:window-maximized="1" inkscape:current-layer="layer1"/>
    <defs id="defs868">
        <clipPath clipPathUnits="userSpaceOnUse" id="clipPath29844-9-7-3-9-7-7-5-1">
            <path d="m -64.194562,92.926905 c 4.29e-4,0.29923 2.844856,0.474579 7.58827,0.467773 4.938075,-0.0071 7.48537,-0.17788 7.294887,-0.489128 -0.174686,-0.28542 -3.234218,-0.47402 -7.58827,-0.467773 -4.548728,0.0065 -7.295323,0.190689 -7.294887,0.489128 z m 0.953876,6.213639 c 5.47e-4,0.313386 3.779971,0.497831 10.631597,0.518853 5.846987,0.01791 11.694001,0.05262 12.993364,0.07705 1.29936,0.02444 2.415337,-0.160226 2.479938,-0.410419 0.07155,-0.277019 -5.009384,-0.497292 -12.994064,-0.563321 -8.644579,-0.0715 -13.111301,0.05721 -13.110835,0.377807 z m 2.712238,12.975906 c 0.258147,0.26077 4.410554,0.38999 9.861439,0.30685 5.976755,-0.0912 9.372524,-0.31832 9.297753,-0.62206 -0.07063,-0.28699 -3.191115,-0.53169 -7.796836,-0.61142 -4.223462,-0.0731 -8.608118,0.004 -9.743645,0.17166 -1.292244,0.19062 -1.897799,0.47306 -1.618711,0.755 z m 0.577699,-25.099111 c 1.23e-4,0.0877 1.169612,0.157874 2.598863,0.155823 1.429259,-0.002 2.598333,-0.219128 2.597966,-0.482388 -1.4e-4,-0.263261 -1.02833,-0.477186 -2.284348,-0.475384 -1.256008,0.0018 -2.425203,0.14708 -2.598192,0.322837 -0.17299,0.17576 -0.314423,0.391353 -0.314289,0.479112 z m 0.295341,14.509861 c 0.269488,0.27222 5.115419,0.51624 11.553025,0.58174 11.088822,0.11284 11.088822,0.11284 11.090544,1.30949 0.0021,1.11049 -0.194534,1.21416 -2.723693,1.43989 -1.498973,0.13378 -2.716245,0.45862 -2.705057,0.72187 0.01115,0.26325 1.208963,0.47035 2.661708,0.46025 2.186093,-0.0147 2.794748,-0.21085 3.531306,-1.13508 0.489477,-0.61418 0.889716,-1.28437 0.88942,-1.48931 -5.59e-4,-0.20492 -0.373263,-0.8249 -0.828817,-1.37771 -0.455567,-0.55281 -1.253574,-1.04045 -1.773363,-1.08364 -0.519796,-0.0431 -5.718274,-0.0375 -11.552178,0.0126 -6.934667,0.0593 -10.446366,0.25341 -10.142895,0.55997 z m 1.606549,-6.16761 c 8.4e-5,0.242399 4.761809,0.423622 10.898749,0.414816 6.977878,-0.01001 11.245389,0.171997 11.863502,0.50598 0.677406,0.36603 1.113918,0.370716 1.463347,0.01571 0.349437,-0.355009 0.08723,-0.686132 -0.879167,-1.110072 -0.932985,-0.4093 -4.196244,-0.614779 -10.118091,-0.637101 -4.807534,-0.0181 -9.750764,0.05999 -10.98496,0.173652 -1.234199,0.113608 -2.243722,0.400288 -2.24338,0.63704 z m 0.01781,12.42239 c 2.04e-4,0.27147 4.178401,0.44722 10.418703,0.43827 8.092702,-0.0116 10.708432,-0.1676 11.71907,-0.69891 0.715548,-0.37619 1.554202,-1.24911 1.863674,-1.93984 0.309468,-0.69073 0.561947,-1.76038 0.561057,-2.37698 -10e-4,-0.6166 -0.409275,-1.62903 -0.907524,-2.24981 -0.49825,-0.62079 -1.060592,-0.972152 -1.249654,-0.78079 -0.189053,0.19135 -0.08653,0.66093 0.227743,1.04347 0.314308,0.38256 0.59141,1.37133 0.61578,2.19725 0.028,0.9476 -0.335178,1.88761 -0.984149,2.54758 -0.986621,1.00331 -1.460338,1.05237 -11.646904,1.20621 -6.26554,0.0946 -10.61818,0.34614 -10.617796,0.61355 z m 0.01779,12.41969 c 4.78e-4,0.3052 3.928732,0.47303 10.839869,0.4631 6.716462,-0.01 10.949985,-0.19776 11.130508,-0.49462 0.191065,-0.31421 -3.539393,-0.47358 -10.83988,-0.46311 -7.105801,0.0102 -11.13093,0.18902 -11.130497,0.49463 z m 1.883712,-4.33297 c 1.52e-4,0.26479 3.223451,0.51131 7.678675,0.5873 4.222913,0.072 8.687855,0.0638 9.9221,-0.0182 1.234244,-0.0821 2.243787,-0.35278 2.243427,-0.60161 -1.94e-4,-0.26977 -4.006442,-0.44667 -9.922757,-0.4382 -5.976098,0.009 -9.921837,0.19573 -9.921446,0.47057 z m 2.553298,-33.005612 c 0.117178,0.191454 4.365903,0.382896 9.441607,0.425419 6.669642,0.05583 9.915507,0.279611 11.705942,0.80691 1.362544,0.401287 3.43502,1.344033 4.605488,2.094975 1.170479,0.750941 2.969843,2.237129 3.998613,3.302639 1.028759,1.065511 2.039941,1.937043 2.247061,1.936746 0.20713,-2.82e-4 0.376234,-0.255533 0.375787,-0.567201 -4.32e-4,-0.31166 -1.035652,-1.574247 -2.300447,-2.805749 -1.26481,-1.23151 -3.659156,-2.914424 -5.320793,-3.739814 -1.661632,-0.825373 -4.297157,-1.710246 -5.856718,-1.966356 -1.559554,-0.256125 -6.361443,-0.461865 -10.670876,-0.457211 -4.309412,0.0051 -7.971075,0.146419 -8.13701,0.315007 -0.165946,0.168587 -0.205843,0.463176 -0.08868,0.654635 z m -0.181872,39.288262 c 8e-5,0.24064 2.286298,0.46452 5.079898,0.49752 2.79359,0.033 7.168399,0.0186 9.721783,-0.0319 2.70924,-0.0537 5.561667,-0.403 6.849781,-0.83884 1.214003,-0.41075 2.691985,-1.06041 3.284417,-1.44367 0.592419,-0.38327 0.959666,-0.88879 0.816089,-1.12339 -0.143577,-0.23459 -1.478654,0.15374 -2.966832,0.86294 -2.62636,1.25162 -3.000483,1.29463 -12.745774,1.46468 -5.633307,0.0983 -10.039717,0.36725 -10.039362,0.61274 z m 0.0034,2.36606 c 5.99e-4,0.31957 2.199288,0.44248 6.260892,0.35 3.879089,-0.0884 6.212248,-0.32453 6.134157,-0.62103 -0.06924,-0.26315 -0.813712,-0.44503 -1.654259,-0.40418 -0.840545,0.0409 -3.601236,0.0987 -6.134877,0.12845 -2.812305,0.0331 -4.606344,0.24603 -4.605913,0.54674 z m 0.890687,-37.829348 c 4.23e-4,0.29827 2.727898,0.474747 7.237364,0.468276 3.980176,-0.0057 8.491871,0.222824 10.025976,0.507844 1.534126,0.285029 3.603556,0.937581 4.598732,1.450123 0.995175,0.512533 2.623988,1.675266 3.619575,2.583863 0.995586,0.908588 1.943852,1.651789 2.10725,1.651555 0.163402,-2.27e-4 0.296682,-0.285435 0.296182,-0.633775 -5.29e-4,-0.348339 -1.09449,-1.531943 -2.431095,-2.630224 -1.522026,-1.250638 -3.572733,-2.352587 -5.487549,-2.948727 -2.573513,-0.801221 -4.395329,-0.949938 -11.512233,-0.939726 -5.321604,0.0076 -8.45464,0.189521 -8.454202,0.490791 z m 1.895995,4.226116 c 3.68e-4,0.2916 3.077629,0.535293 7.914963,0.626801 6.661843,0.126043 8.206363,0.295846 9.759907,1.073048 1.015078,0.507822 2.58195,1.667146 3.481904,2.576256 0.899963,0.909117 1.935387,2.375197 2.300943,3.257937 0.365559,0.882748 0.874415,1.6047 1.130794,1.60432 0.256382,-10e-5 0.465818,-0.224635 0.465425,-0.498391 -4.24e-4,-0.273746 -0.408459,-1.296294 -0.906821,-2.272329 -0.49836,-0.976033 -1.616715,-2.449508 -2.485233,-3.2744 -0.86851,-0.824888 -2.323849,-1.899559 -3.234077,-2.388154 -1.39501,-0.748831 -2.972283,-0.911438 -10.041732,-1.035261 -5.36257,-0.09394 -8.386513,0.02513 -8.386073,0.330173 z m 0.962929,12.522892 c 3.93e-4,0.29457 2.363088,0.47527 6.14294,0.46985 3.779841,-0.005 6.141987,-0.19292 6.141564,-0.48747 -3.94e-4,-0.29456 -2.363091,-0.47527 -6.14294,-0.46985 -3.779852,0.005 -6.141987,0.19292 -6.141564,0.48747 z m 0.960129,10.57404 c -1.86e-4,0.23858 2.793133,0.42977 6.206186,0.42486 3.513835,-0.005 7.048739,-0.26388 8.149451,-0.59677 1.178642,-0.35643 2.813093,-1.46719 4.151777,-2.82148 1.477074,-1.49428 2.391482,-2.92589 2.762585,-4.32515 0.305099,-1.15035 0.434387,-3.2643 0.287317,-4.69768 -0.182632,-1.78009 -0.693477,-3.218441 -1.611649,-4.537885 -0.739351,-1.06246 -2.05621,-2.416294 -2.92636,-3.008523 -0.87015,-0.592233 -2.351573,-1.292127 -3.292043,-1.55534 -0.94048,-0.263192 -4.208198,-0.47615 -7.261615,-0.473243 -3.38787,0.0027 -5.551385,0.191857 -5.55096,0.483956 3.32e-4,0.287221 1.937687,0.480564 4.843626,0.483411 2.663625,0.0022 5.800038,0.225009 6.969823,0.494201 1.169777,0.26921 2.784547,0.942235 3.58836,1.495643 0.803831,0.553391 1.972537,1.759403 2.597135,2.68002 0.876167,1.291403 1.173429,2.44917 1.301016,5.06722 0.151975,3.11882 0.04962,3.56945 -1.265101,5.56906 -0.786766,1.1966 -2.342722,2.70663 -3.457696,3.35559 -1.843423,1.07293 -2.637665,1.19572 -8.759849,1.35411 -3.702943,0.0958 -6.73234,0.36941 -6.732003,0.608 z m 6.487888,-3.98927 c 4.931429,0.0982 6.558353,-0.0336 7.676944,-0.62163 0.780671,-0.41041 1.418943,-1.06377 1.418381,-1.45189 -2.8e-5,-0.38815 -0.143734,-0.7055 -0.318168,-0.70524 -0.174442,4.2e-4 -0.727084,0.37798 -1.228123,0.8394 -0.741507,0.68291 -1.978625,0.86656 -6.65053,0.98729 -3.15677,0.0815 -6.058291,0.30113 -6.447808,0.48791 -0.389535,0.18679 2.107653,0.39564 5.549304,0.46416 z m -3.83659,-20.908099 c 0.265839,0.268528 1.686054,0.420983 3.156064,0.338774 1.470001,-0.08222 2.723137,-0.364932 2.784737,-0.628289 0.06166,-0.263349 -1.032147,-0.543259 -2.430542,-0.62202 -1.398395,-0.07879 -2.869011,-0.01578 -3.26806,0.140048 -0.493849,0.192796 -0.57118,0.439147 -0.242199,0.771487 z m -0.06643,16.708169 c 0.162117,0.26489 0.694899,0.48105 1.18396,0.48033 0.48905,-9.6e-4 1.02121,-0.21837 1.182569,-0.48372 0.161359,-0.26537 -0.03917,-0.61121 -0.445707,-0.76857 -0.406483,-0.15735 -1.071295,-0.1564 -1.477323,0.002 -0.406046,0.15853 -0.605619,0.50494 -0.443502,0.76984 z m 1.673817,12.5874 c 2.72e-4,0.2797 1.993867,0.3719 5.079506,0.23493 3.799547,-0.16865 5.643817,-0.48143 7.321695,-1.24172 1.233559,-0.55896 2.242508,-1.24379 2.242109,-1.52186 -2.56e-4,-0.27807 -0.0539,-0.50538 -0.118845,-0.50516 -0.065,2.1e-4 -1.236017,0.4327 -2.602338,0.96104 -1.838966,0.71113 -3.628323,0.96229 -6.888984,0.96696 -2.42262,0.003 -4.546291,0.15013 -4.719288,0.32589 -0.172987,0.17575 -0.314221,0.52672 -0.313855,0.77992 z m 2.804467,-21.206334 c 1.37e-4,0.263268 1.116908,0.477852 2.481206,0.476892 1.626063,-0.0013 3.002043,0.319341 3.994499,0.930421 0.832682,0.512703 1.864138,1.615761 2.292118,2.451271 0.559309,1.09185 0.691952,2.10725 0.471644,3.61044 -0.179876,1.22738 -0.120227,2.0911 0.144388,2.09072 0.247978,-9e-5 0.579445,-0.34155 0.736576,-0.75819 0.15715,-0.41667 0.284483,-1.61223 0.282986,-2.65682 -0.0015,-1.04459 -0.317378,-2.51351 -0.701959,-3.26426 -0.38457,-0.750729 -1.421125,-1.815542 -2.303447,-2.366224 -1.172242,-0.731612 -2.384402,-1.000102 -4.501468,-0.997065 -1.616505,0.0023 -2.896934,0.215739 -2.896543,0.482815 z m 0.926995,-12.514889 c -2.05e-4,0.225643 1.753679,0.529453 3.896333,0.675149 2.142664,0.145698 3.996929,0.162104 4.120593,0.03649 0.123655,-0.125638 -0.08818,-0.428375 -0.470839,-0.672745 -0.382619,-0.24436 -2.237152,-0.445392 -4.121177,-0.446718 -1.884022,-0.0013 -3.425231,0.182204 -3.424909,0.407859 z m 0.983869,27.111283 c 7.75e-4,0.4648 0.459215,0.7164 1.300349,0.71346 0.71463,-0.002 2.102118,-0.23162 3.083317,-0.50919 0.981196,-0.27757 2.521398,-1.16248 3.422668,-1.96647 0.901277,-0.804 1.638244,-1.76259 1.637719,-2.13022 -0.0011,-0.36761 -0.161114,-0.66816 -0.356847,-0.66788 -0.195744,5.4e-4 -0.974807,0.66673 -1.731247,1.481 -0.756451,0.81427 -1.884595,1.67747 -2.507,1.91823 -0.622405,0.24077 -1.968291,0.43895 -2.990822,0.44041 -1.337608,0.002 -1.858883,0.20409 -1.858137,0.72066 z m 0.49069,12.66878 c 2.07e-4,0.27152 0.904294,0.4669 2.008675,0.43417 1.104377,-0.0328 2.628081,-0.19647 3.385986,-0.36385 0.757924,-0.1674 1.459704,-0.55433 1.559535,-0.85986 0.130109,-0.3982 -0.661755,-0.48777 -2.796362,-0.3163 -1.637835,0.13157 -3.243522,0.32313 -3.568209,0.42568 -0.324677,0.10255 -0.59002,0.40864 -0.589625,0.68016 z m 0.42116,-35.757662 c 9.3e-4,0.483771 0.757346,0.782885 2.481932,0.981132 1.364519,0.15685 2.959533,0.425212 3.544472,0.596363 0.662094,0.19372 1.063239,0.104967 1.062746,-0.235155 -4.42e-4,-0.300479 -0.47944,-0.728949 -1.064442,-0.952143 -0.585021,-0.223192 -2.180132,-0.558879 -3.544697,-0.745972 -2.010956,-0.275718 -2.480823,-0.208313 -2.480011,0.355775 z m 4.290663,26.714082 c 7.9e-5,0.23978 0.199404,0.43566 0.442349,0.43532 0.242949,-8e-5 0.975699,-0.20719 1.628329,-0.45964 0.652633,-0.25245 2.080382,-1.27763 3.172758,-2.27818 1.09239,-1.00055 2.480718,-2.8969 3.085171,-4.21407 0.709133,-1.54529 1.099376,-3.28637 1.100028,-4.90786 0.001,-1.38213 -0.211605,-2.51265 -0.471476,-2.51228 -0.259862,1.2e-4 -0.471452,0.71546 -0.470199,1.5891 0.0013,0.87364 -0.309016,2.6511 -0.689483,3.94995 -0.380465,1.29883 -1.334331,3.15082 -2.119696,4.11555 -0.785361,0.96472 -2.384278,2.22477 -3.553161,2.8001 -1.168885,0.57531 -2.124959,1.24223 -2.12462,1.48201 z m 0.478724,4.35154 c 4.35e-4,0.29993 0.513286,0.36687 1.299581,0.16961 0.714357,-0.17919 2.14857,-0.84436 3.187128,-1.47813 1.038549,-0.63378 2.39665,-1.56073 3.018004,-2.05988 0.682523,-0.54831 0.988467,-1.13837 0.772871,-1.49063 -0.257503,-0.42076 -0.703682,-0.24604 -1.60261,0.62755 -0.685174,0.66582 -2.4675,1.77883 -3.960718,2.47331 -1.493227,0.69448 -2.71465,1.48565 -2.714256,1.75817 z m 1.385399,-22.339694 c 1.5e-4,0.104402 0.532951,0.982574 1.184002,1.951487 0.898492,1.337167 1.184614,2.379947 1.187414,4.327507 0.0026,1.4112 0.206667,2.56554 0.454753,2.56518 0.248098,-9e-5 0.587012,-0.74069 0.753161,-1.64519 0.167391,-0.91121 0.04017,-2.45851 -0.285387,-3.46989 -0.323127,-1.00392 -1.000328,-2.419603 -1.504896,-3.145957 -0.504577,-0.726347 -1.113583,-1.197395 -1.353358,-1.046791 -0.239774,0.150612 -0.435836,0.359253 -0.435689,0.463654 z m 0.928027,-11.803533 c -2.05e-4,0.225847 1.248084,1.188201 2.772796,2.138575 1.524714,0.950382 3.570935,2.621019 4.547142,3.712539 0.976215,1.091523 2.18751,2.925797 2.691772,4.076166 0.504262,1.150366 1.142552,2.091251 1.41843,2.09086 0.307618,-4.99e-4 0.38056,-0.509578 0.188603,-1.316587 -0.17214,-0.72373 -1.088622,-2.467024 -2.036622,-3.873992 -0.948,-1.406963 -2.694181,-3.30788 -3.880405,-4.224249 -1.186216,-0.916379 -2.874167,-1.969508 -3.750995,-2.340291 -0.87683,-0.370792 -1.674569,-0.674048 -1.772772,-0.673907 -0.0982,1.43e-4 -0.178273,0.185036 -0.177949,0.410886 z m 0.528438,37.522447 c -5.1e-4,0.19744 0.21855,0.35868 0.487057,0.35829 0.268497,-1.8e-4 1.53558,-0.54029 2.815726,-1.19981 1.280144,-0.6595 3.115025,-1.90066 4.077506,-2.75814 0.962489,-0.85746 2.346275,-2.39455 3.075082,-3.41573 0.728814,-1.02115 1.205266,-2.05246 1.058801,-2.29178 -0.146473,-0.23932 -1.604397,1.02821 -3.239831,2.81673 -1.720791,1.88189 -4.08988,3.85845 -5.623354,4.69166 -1.457408,0.79187 -2.650362,1.60133 -2.650987,1.79878 z m 0.424526,-32.270628 c 8.44e-4,0.219196 0.832651,1.073975 1.849625,1.899519 1.074472,0.872188 2.462623,2.740403 3.313772,4.459745 0.805596,1.62733 1.465451,3.462874 1.466335,4.078984 9.27e-4,0.66818 0.282817,1.11978 0.698515,1.1192 0.529953,-2.3e-4 0.627835,-0.3736 0.408598,-1.55624 -0.158568,-0.85538 -0.71013,-2.569956 -1.225678,-3.810179 -0.526608,-1.266815 -1.94282,-3.204982 -3.231828,-4.422961 -1.261954,-1.192422 -2.516191,-2.167713 -2.787185,-2.167322 -0.270997,4e-4 -0.492463,0.180055 -0.492154,0.399254 z m 1.733834,24.085348 c 0.139302,0.22762 0.707386,0.0907 1.262408,-0.30439 0.555013,-0.39503 1.6083,-1.62488 2.340639,-2.73302 0.732332,-1.10813 1.661255,-3.17008 2.064248,-4.58213 0.403007,-1.41205 0.609072,-2.89243 0.45793,-3.28973 -0.151138,-0.39731 -0.488732,-0.58799 -0.750197,-0.42376 -0.261466,0.16422 -0.474522,0.89767 -0.473473,1.62987 0.001,0.7322 -0.630473,2.61798 -1.403367,4.19061 -0.772904,1.57262 -1.933175,3.36318 -2.578386,3.979 -0.645206,0.61584 -1.059128,1.30594 -0.919802,1.53355 z m 1.925034,3.87277 c 0.120172,0.19798 0.611768,0.14602 1.092422,-0.11547 0.480658,-0.2615 1.620419,-1.36154 2.532798,-2.44454 0.912386,-1.083 2.188023,-3.10553 2.834764,-4.49451 0.646737,-1.38898 1.40386,-3.785 1.68249,-5.32449 0.278632,-1.53947 0.369076,-3.83776 0.200982,-5.10731 -0.168092,-1.26955 -0.512501,-2.238075 -0.765359,-2.152289 -0.252856,0.08576 -0.50162,1.979199 -0.552803,4.207579 -0.06645,2.89377 -0.398998,4.84556 -1.16361,6.82991 -0.664001,1.72321 -2.021768,3.81557 -3.575369,5.50973 -1.377644,1.50226 -2.40649,2.89341 -2.286315,3.09139 z m 2.081632,-5.46899 c -0.02101,0.35105 0.227432,0.55762 0.552121,0.45903 0.32469,-0.0986 1.226349,-1.46406 2.003697,-3.03438 1.274259,-2.57417 1.412673,-3.30265 1.40647,-7.40243 -0.0055,-3.669874 -0.207433,-4.985657 -1.046304,-6.819402 -0.571685,-1.24967 -1.288793,-2.271784 -1.593581,-2.271346 -0.31184,4.34e-4 -0.439923,0.36691 -0.292908,0.838073 0.14368,0.460508 0.572657,1.698424 0.953299,2.750926 0.38063,1.052502 0.797475,2.853789 0.926323,4.002849 0.128849,1.14907 -0.01284,3.31297 -0.314851,4.80869 -0.302014,1.49571 -1.000679,3.46429 -1.552584,4.37459 -0.551895,0.91033 -1.020654,1.94236 -1.041682,2.2934 z m 5.501116,-18.002445 c 0.831578,2.054556 1.280434,4.21066 1.429656,6.867495 0.152804,2.72059 -0.0111,4.67352 -0.550763,6.56462 -0.422556,1.48056 -0.893222,3.02317 -1.045912,3.42806 -0.171377,0.45439 -0.01455,0.73576 0.409865,0.73515 0.411532,-3.3e-4 1.011142,-1.01017 1.493784,-2.51511 0.443457,-1.38277 0.923504,-3.91437 1.066778,-5.6258 0.175258,-2.09338 0.01143,-4.09008 -0.500673,-6.101497 -0.418651,-1.644424 -1.200288,-3.858719 -1.736982,-4.920681 -0.536694,-1.061962 -1.15627,-1.81748 -1.376843,-1.678942 -0.220579,0.138542 0.144417,1.59956 0.81109,3.246705 z" style="fill:#000000;stroke-width:1" id="path29846-1-7-6-4-7-7-6-2"/>
        </clipPath>
    </defs>
    <g inkscape:label="Layer 1" inkscape:groupmode="layer" id="layer1">
        <circle style="fill:#004200;fill-opacity:1;stroke-width:0.197044" id="path66026" cx="113.07975" cy="126.56232" r="19" inkscape:export-filename="/home/stefano/Documents/TRACE_token/logo_TRACE/trace_logo3_fingerprint_only.png" inkscape:export-xdpi="300" inkscape:export-ydpi="300"/>
        <rect style="display:inline;fill:#ffffff;fill-opacity:1;fill-rule:evenodd;stroke-width:0.264583" id="rect1665-7-9-8-9-1-6-3-9" width="56.078476" height="56.959522" x="-71.080917" y="75.232765" transform="matrix(8.8720573e-4,-0.61833323,0.61833323,8.8720573e-4,49.307861,101.78466)" clip-path="url(#clipPath29844-9-7-3-9-7-7-5-1)" inkscape:export-filename="/home/stefano/Documents/TRACE_token/logo_TRACE/trace_logo3_fingerprint_only.png" inkscape:export-xdpi="300" inkscape:export-ydpi="300"/>
        <use clip-path="url(#clipPath29844-9-7-3-9-7-7-5-1)" href="#rect1665-7-9-8-9-1-6-3-9"/>
    </g>
</svg>
