<?xml version="1.0" encoding="UTF-8" standalone="no"?>
<!-- Created with Inkscape (http://www.inkscape.org/) -->

<svg
   width="297mm"
   height="210mm"
   viewBox="0 0 297 210"
   version="1.1"
   id="svg885"
   inkscape:version="1.1.2 (08b2f3d93c, 2022-04-05)"
   sodipodi:docname="trace_03_typeface_only.svg"
   xmlns:inkscape="http://www.inkscape.org/namespaces/inkscape"
   xmlns:sodipodi="http://sodipodi.sourceforge.net/DTD/sodipodi-0.dtd"
   xmlns="http://www.w3.org/2000/svg"
   xmlns:svg="http://www.w3.org/2000/svg">
  <sodipodi:namedview
     id="namedview887"
     pagecolor="#ffffff"
     bordercolor="#666666"
     borderopacity="1.0"
     inkscape:pageshadow="2"
     inkscape:pageopacity="0.0"
     inkscape:pagecheckerboard="0"
     inkscape:document-units="mm"
     showgrid="false"
     inkscape:zoom="0.26524571"
     inkscape:cx="-458.06584"
     inkscape:cy="733.28235"
     inkscape:window-width="1848"
     inkscape:window-height="1016"
     inkscape:window-x="72"
     inkscape:window-y="27"
     inkscape:window-maximized="1"
     inkscape:current-layer="layer1" />
  <defs
     id="defs882" />
  <g
     inkscape:label="Layer 1"
     inkscape:groupmode="layer"
     id="layer1">
    <path
       d="m 81.554599,88.040292 c 0.772801,0 1.429694,0.270483 1.970664,0.81145 0.540971,0.540966 0.811441,1.197856 0.811441,1.970671 0,0.7728 -0.27047,1.429693 -0.811441,1.970663 -0.54097,0.540956 -1.197863,0.811441 -1.970664,0.811441 h -17.15636 v 16.924523 c 0,0.7728 -0.2705,1.4297 -0.811471,1.97067 -0.540971,0.54097 -1.197849,0.81144 -1.970664,0.81144 -0.7728,0 -1.429693,-0.27047 -1.970663,-0.81144 C 59.10447,111.95874 58.834,111.30184 58.834,110.52904 V 93.604517 H 16.129251 c -0.695534,-0.07725 -1.294465,-0.367072 -1.79678,-0.869402 -0.502315,-0.540971 -0.753495,-1.178543 -0.753495,-1.912702 0,-0.772815 0.2705,-1.429705 0.811456,-1.970671 0.54097,-0.540967 1.197863,-0.81145 1.970663,-0.81145 z"
       id="path5977"
       sodipodi:nodetypes="ssssscssssscccssss"
       style="font-size:36.1765px;line-height:1.25;font-family:'Space Age';-inkscape-font-specification:'Space Age, Normal';display:inline;fill:#004500;fill-opacity:1;stroke-width:1.20503" />
    <path
       d="m 110.52384,103.45783 c 1.04328,0.6569 2.1059,1.37175 3.18784,2.14455 1.08193,0.73417 2.18319,1.54561 3.30376,2.43435 0.42503,0.30913 0.79212,0.67621 1.10124,1.10125 0.30913,0.3864 0.46369,0.85009 0.46369,1.39106 0,0.7728 -0.27048,1.4297 -0.81145,1.97067 -0.54097,0.54097 -1.19785,0.81144 -1.97067,0.81144 -0.65687,0 -1.31377,-0.27047 -1.97066,-0.81144 -1.58426,-1.15923 -3.20715,-2.27979 -4.8687,-3.36173 -1.66154,-1.08193 -3.40036,-2.04793 -5.21646,-2.89803 -1.77745,-0.85009 -3.6322,-1.52629 -5.564241,-2.02862 -1.932008,-0.50233 -3.941312,-0.7535 -6.027898,-0.7535 H 80.616116 c -0.50233,0.0773 -0.927379,0.30913 -1.275145,0.69554 -0.347767,0.38641 -0.52165,0.86942 -0.52165,1.44901 v 12.59834 c 0,0.77281 -0.289806,1.4297 -0.869403,1.97066 -0.54097,0.54097 -1.178528,0.81146 -1.912702,0.81146 -0.772815,0 -1.429693,-0.27049 -1.970664,-0.81146 -0.54097,-0.54096 -0.811455,-1.19785 -0.811455,-1.97066 v -13.2359 c 0,-0.96601 0.173883,-1.87406 0.52165,-2.72415 0.386392,-0.88874 0.888722,-1.64222 1.506974,-2.260473 0.618252,-0.656893 1.352412,-1.159208 2.202508,-1.506975 0.850082,-0.386407 1.777475,-0.579611 2.78212,-0.579611 h 30.719171 c 0.57962,0 1.08195,-0.193204 1.50698,-0.579611 0.46369,-0.425034 0.69553,-0.946684 0.69553,-1.564936 0,-0.579611 -0.23184,-1.081926 -0.69553,-1.506974 -0.42503,-0.425049 -0.92736,-0.637573 -1.50698,-0.637573 H 76.037216 c -0.772815,0 -1.429693,-0.270485 -1.970664,-0.811441 -0.54097,-0.54097 -0.811455,-1.197863 -0.811455,-1.970663 0,-0.772815 0.270485,-1.429705 0.811455,-1.970671 0.540971,-0.540967 1.197849,-0.81145 1.970664,-0.81145 h 34.718454 c 1.08194,0 2.0866,0.212522 3.01396,0.637566 0.966,0.386406 1.79678,0.927371 2.49231,1.622904 0.73418,0.695519 1.29447,1.506975 1.68086,2.434353 0.42505,0.927363 0.63757,1.932023 0.63757,3.013949 0,1.081941 -0.21252,2.086586 -0.63757,3.013964 -0.38639,0.927363 -0.94668,1.738822 -1.68086,2.434342 -0.69553,0.69553 -1.52631,1.25582 -2.49231,1.68087 -0.92736,0.38641 -1.93202,0.57959 -3.01396,0.57959 z"
       id="path5979"
       sodipodi:nodetypes="ccccssscscsscssscsssscccsscscssssssscccscccsc"
       style="font-size:36.1765px;line-height:1.25;font-family:'Space Age';-inkscape-font-specification:'Space Age, Normal';display:inline;fill:#004500;fill-opacity:1;stroke-width:1.20503" />
    <path
       d="m 136.16267,107.05141 c 0,-1.00466 1.11493,-1.85476 1.81043,-2.55027 0.69554,-0.69554 1.54563,-1.81047 2.55029,-1.81047 1.00465,0 1.85474,1.11493 2.55027,1.81047 0.69552,0.69551 1.81044,1.54561 1.81044,2.55027 0,1.00464 -1.11492,1.85474 -1.81044,2.55026 -0.69553,0.69553 -1.54562,1.81046 -2.55027,1.81046 -1.00466,0 -1.85475,-1.11493 -2.55029,-1.81046 -0.6955,-0.69552 -1.81043,-1.54562 -1.81043,-2.55026 z m -11.46254,5.21645 c -0.57961,0.69554 -1.29447,1.04329 -2.14456,1.04329 -0.7728,0 -1.4297,-0.27047 -1.97067,-0.81144 -0.54097,-0.54097 -0.81145,-1.19787 -0.81145,-1.97067 0,-0.69553 0.19322,-1.25582 0.57962,-1.68085 l 14.08445,-18.953156 c 0.65689,-0.888732 1.52629,-1.60358 2.60822,-2.144546 1.08193,-0.579607 2.24115,-0.86941 3.47765,-0.86941 1.15921,0 2.26045,0.251162 3.30375,0.753487 1.0433,0.502327 1.8934,1.197856 2.55028,2.086586 l 14.08444,18.837229 c 0.23185,0.27049 0.42506,0.5796 0.57962,0.92736 0.15461,0.30913 0.23185,0.6569 0.23185,1.0433 0,0.7728 -0.2705,1.4297 -0.81147,1.97067 -0.54098,0.54097 -1.19785,0.81144 -1.97067,0.81144 -0.92736,0 -1.66152,-0.36707 -2.20249,-1.10125 L 142.78384,94.184128 c -0.27047,-0.309126 -0.61823,-0.637572 -1.04328,-0.985339 -0.3864,-0.386407 -0.79213,-0.579596 -1.21717,-0.579596 -0.42504,0 -0.85009,0.193189 -1.27513,0.579596 -0.38642,0.347767 -0.69553,0.676213 -0.92739,0.985339 z"
       id="path5981"
       sodipodi:nodetypes="ssssssssscssscccsscccssscccsccc"
       style="font-size:36.1765px;line-height:1.25;font-family:'Space Age';-inkscape-font-specification:'Space Age, Normal';display:inline;fill:#004500;fill-opacity:1;stroke-width:1.20503" />
    <path
       d="m 160.25013,100.67573 q 0,-2.202508 0.69554,-4.405016 0.75348,-2.260469 2.14454,-4.057249 1.39105,-1.854741 3.3617,-3.01396 1.97067,-1.159213 4.46298,-1.159213 h 33.7911 q 1.15921,0 1.97067,0.81145 0.81144,0.811448 0.81144,1.970671 0,1.159207 -0.81144,1.970663 -0.81146,0.811441 -1.97067,0.811441 h -32.57392 q -2.02862,0 -3.30375,0.753495 -1.21718,0.695519 -1.97066,1.738819 -0.69554,1.043285 -0.98534,2.31843 -0.23185,1.217169 -0.23185,2.260469 0,1.04329 0.23185,2.31843 0.2898,1.21717 0.98534,2.26046 0.75348,1.0433 1.97066,1.79679 1.27513,0.69551 3.30375,0.69551 h 32.57392 q 1.15921,0 1.97067,0.81146 0.81144,0.81144 0.81144,1.97066 0,1.15921 -0.81144,1.97067 -0.81146,0.81144 -1.97067,0.81144 h -34.3707 q -2.37639,0 -4.23113,-1.15921 -1.85474,-1.15921 -3.18783,-2.95599 -1.27515,-1.85475 -1.97066,-4.11522 -0.69554,-2.26045 -0.69554,-4.405 z"
       id="path5983"
       style="font-size:36.1765px;line-height:1.25;font-family:'Space Age';-inkscape-font-specification:'Space Age, Normal';display:inline;fill:#004500;fill-opacity:1;stroke-width:1.20503" />
    <path
       d="m 181.83025,90.822413 c 0,-0.772815 0.27047,-1.429705 0.81144,-1.970671 0.54097,-0.540967 1.19787,-0.81145 1.97067,-0.81145 h 71.78086 c 0.7728,0 1.42969,0.270483 1.97066,0.81145 0.54097,0.540966 0.81144,1.197856 0.81144,1.970671 0,0.7728 -0.27047,1.429693 -0.81144,1.970663 -0.54097,0.540956 -1.19786,0.811441 -1.97066,0.811441 h -71.78086 c -0.7728,0 -1.4297,-0.270485 -1.97067,-0.811441 -0.54097,-0.54097 -0.81144,-1.197863 -0.81144,-1.970663 z m 37.75792,22.488737 c -0.8501,0 -1.70018,-0.17387 -2.55028,-0.52164 -0.85008,-0.3864 -1.60359,-0.90805 -2.26047,-1.56495 -0.65689,-0.65688 -1.19786,-1.44901 -1.62289,-2.37637 -0.42505,-0.92738 -0.63758,-1.97067 -0.63758,-3.12989 v -5.21645 c 0,-1.043303 0.28981,-1.738822 0.86942,-2.086589 0.61825,-0.347767 1.56494,-0.52165 2.84008,-0.52165 h 38.89164 c 0.7728,0 1.42969,0.270485 1.97066,0.811456 0.54097,0.540956 0.81144,1.197848 0.81144,1.970663 0,0.7728 -0.27047,1.42969 -0.81144,1.97066 -0.54097,0.54096 -1.19786,0.81144 -1.97066,0.81144 h -37.03691 v 2.84009 c 0,0.3864 0.15461,0.73417 0.4637,1.04328 0.34777,0.27048 0.79212,0.40572 1.33309,0.40572 h 58.76311 c 0.7728,0 1.4297,0.27049 1.97067,0.81146 0.54097,0.54096 0.81144,1.19785 0.81144,1.97066 0,0.7728 -0.27047,1.4297 -0.81144,1.97067 -0.54097,0.54097 -1.19787,0.81144 -1.97067,0.81144 z"
       id="path5985"
       sodipodi:nodetypes="sssssssssssscsssscsssssscscsssssss"
       style="font-size:36.1765px;line-height:1.25;font-family:'Space Age';-inkscape-font-specification:'Space Age, Normal';display:inline;fill:#004500;fill-opacity:1;stroke-width:1.20503" />
  </g>
</svg>
